<?xml version="1.0" standalone="no"?>
<!DOCTYPE svg PUBLIC "-//W3C//DTD SVG 20010904//EN"
 "http://www.w3.org/TR/2001/REC-SVG-20010904/DTD/svg10.dtd">
<svg version="1.0" xmlns="http://www.w3.org/2000/svg"
 width="900.000000pt" height="1160.000000pt" viewBox="0 0 900.000000 1160.000000"
 preserveAspectRatio="xMidYMid meet">

<g transform="translate(0.000000,1160.000000) scale(0.100000,-0.100000)"
fill="#000000" stroke="none">
<path d="M4600 10680 c-348 -435 -634 -789 -636 -787 -2 2 10 38 26 80 38 96
76 254 90 371 6 49 9 90 8 92 -5 4 -216 -264 -369 -468 -158 -211 -231 -340
-721 -1270 -95 -180 -177 -328 -182 -328 -15 0 2 198 23 278 10 39 16 72 12
72 -10 0 -131 -126 -189 -197 -215 -263 -389 -651 -467 -1037 -39 -197 -45
-265 -29 -359 25 -154 35 -312 41 -647 8 -452 -16 -776 -60 -844 -10 -14 -38
-27 -83 -39 -38 -9 -244 -74 -457 -144 l-389 -127 -166 -171 c-170 -174 -342
-374 -443 -515 l-56 -78 -13 -153 -13 -154 -54 -93 c-112 -191 -199 -411 -245
-618 -42 -190 -24 -405 54 -653 l33 -104 94 149 c173 272 424 659 437 673 7 8
235 101 505 207 l493 193 95 -36 c134 -49 312 -135 482 -232 154 -89 523 -331
576 -378 25 -23 40 -55 78 -171 26 -79 45 -145 44 -147 -9 -7 -242 -55 -340
-69 -64 -10 -174 -16 -276 -16 l-170 0 -40 -29 c-113 -82 -423 -576 -483 -768
-37 -119 -18 -216 52 -271 15 -12 16 -11 6 16 -9 23 -8 40 6 83 27 81 36 87
57 40 10 -23 30 -46 48 -55 43 -22 58 -20 35 5 -15 17 -19 36 -19 98 0 71 3
82 34 132 19 30 79 126 134 214 54 88 101 162 103 164 3 3 12 -5 20 -18 53
-76 138 -160 175 -175 37 -15 44 -15 65 -1 13 8 26 15 30 15 16 0 -7 -112 -35
-174 -29 -65 -30 -68 -8 -54 33 22 85 103 102 161 32 108 16 184 -71 338 -30
52 -54 102 -54 110 0 25 84 57 192 73 137 20 457 50 464 44 12 -12 25 -199 19
-278 -8 -103 -30 -246 -50 -320 -8 -30 -13 -55 -12 -56 1 -2 28 20 60 47 l57
50 -51 -108 c-28 -59 -54 -112 -59 -116 -4 -5 -264 -62 -576 -128 l-569 -119
-190 -94 c-223 -111 -459 -264 -561 -362 -135 -130 -195 -256 -193 -408 1
-100 13 -143 21 -73 6 48 60 169 97 216 17 22 21 23 49 12 30 -12 36 -10 132
48 55 34 103 61 105 61 2 0 -19 -44 -46 -98 -27 -53 -56 -126 -66 -162 -18
-71 -23 -197 -9 -245 8 -28 9 -27 21 31 14 64 58 161 107 231 l28 42 -30 16
c-40 21 -38 25 8 14 51 -12 126 -11 154 2 13 5 30 23 39 38 17 29 406 498 430
518 11 9 40 -11 139 -93 148 -123 257 -199 309 -215 36 -11 68 -6 167 26 19 6
24 0 39 -39 31 -82 6 -172 -77 -276 -40 -50 -40 -50 -11 -39 89 33 154 97 181
178 18 51 15 193 -4 241 -25 63 -197 190 -467 346 l-69 39 39 7 c227 42 350
69 593 129 247 60 784 202 979 257 l64 18 -2 312 c-1 172 1 312 6 311 4 0 64
-69 132 -154 69 -85 127 -153 129 -151 2 2 -4 58 -13 125 -9 66 -15 126 -13
132 2 6 49 -44 103 -112 l100 -122 3 86 c1 48 7 87 12 87 11 0 342 -657 444
-883 102 -226 160 -398 236 -705 6 -23 25 -59 43 -80 120 -141 629 -682 649
-690 4 -2 -10 25 -31 61 -81 132 -231 447 -374 782 -87 204 -217 528 -214 531
2 2 29 -41 60 -95 310 -533 731 -1027 1083 -1271 41 -28 74 -47 74 -41 0 5 -4
12 -9 16 -31 19 -489 825 -699 1230 -7 15 17 -11 109 -115 199 -225 426 -442
691 -662 116 -97 365 -288 375 -288 3 0 -9 17 -26 38 -60 72 -288 378 -422
567 -146 205 -429 611 -444 635 -14 24 28 -14 180 -160 393 -379 743 -678 981
-836 63 -42 117 -75 119 -72 7 7 -247 303 -737 855 -147 166 -268 304 -268
308 0 3 33 -23 73 -57 153 -133 361 -286 547 -400 127 -78 320 -183 320 -173
0 16 -456 500 -970 1030 -85 89 -173 180 -195 204 -49 53 -61 59 240 -114 246
-141 286 -163 270 -148 -5 6 -146 117 -313 248 -166 131 -301 239 -300 240 2
2 95 -24 208 -56 441 -127 861 -222 904 -206 11 5 16 19 16 52 0 61 -67 376
-84 393 -3 3 -39 11 -78 17 l-73 12 54 2 54 1 -7 40 c-18 113 -101 255 -219
373 l-75 75 -53 -10 c-65 -12 -412 -3 -549 15 l-95 13 135 7 c74 4 173 12 220
18 91 10 237 46 245 59 3 5 -79 87 -182 184 l-187 175 -125 0 c-141 1 -502 39
-517 54 -2 2 29 10 68 17 77 13 202 52 253 78 48 24 115 74 115 87 0 6 -64 44
-142 84 -79 41 -189 98 -245 128 l-101 53 -79 -27 c-70 -25 -91 -28 -213 -28
-130 0 -140 2 -280 44 -80 24 -151 47 -159 51 -7 4 47 10 120 14 l134 7 138
72 137 72 70 96 c39 54 70 99 70 101 0 3 -29 1 -63 -4 -63 -8 -65 -8 -151 38
l-88 47 110 28 c60 15 167 49 238 75 150 54 434 164 434 168 0 2 -64 20 -142
41 -79 21 -147 41 -151 45 -5 4 43 20 105 35 170 42 338 92 364 110 35 23 56
61 74 133 l16 65 111 23 c164 34 543 133 918 240 303 86 415 122 345 109 -132
-25 -710 -48 -710 -29 0 5 103 26 228 47 353 58 815 163 1207 273 234 66 620
187 607 192 -6 2 -80 -10 -164 -27 -434 -86 -928 -162 -1448 -221 -231 -26
-612 -61 -616 -57 -2 2 91 27 208 56 778 194 1394 410 1736 610 111 65 227
156 268 212 20 27 34 52 31 56 -3 3 -30 -8 -59 -25 -122 -70 -410 -175 -763
-277 -192 -56 -594 -160 -695 -180 -59 -12 -27 4 51 26 132 36 315 145 584
349 150 113 401 315 411 331 2 5 -51 -20 -118 -56 -219 -113 -573 -254 -1038
-413 -274 -93 -730 -235 -737 -229 -2 3 24 24 59 48 126 85 627 445 793 570
289 216 349 274 443 430 37 61 106 209 100 214 -2 2 -68 -44 -148 -101 -340
-245 -861 -584 -1330 -866 -306 -183 -412 -244 -370 -211 269 215 459 426 622
689 53 86 168 305 168 321 0 4 -109 -101 -242 -233 -335 -332 -567 -535 -845
-742 -440 -327 -827 -511 -1131 -537 -98 -9 -110 5 -19 24 440 89 865 439
1105 908 75 149 72 157 -17 45 -177 -223 -426 -452 -659 -610 -125 -84 -297
-183 -359 -207 -37 -15 -38 -15 -13 2 108 77 187 142 211 176 27 37 29 47 29
128 0 73 -17 237 -25 247 -1 2 -93 -20 -203 -48 -111 -27 -207 -50 -214 -50
-7 0 50 33 127 74 158 82 384 211 402 229 7 7 17 64 23 127 6 63 17 155 26
204 8 48 13 91 10 93 -3 3 -52 -9 -109 -26 -58 -17 -108 -31 -113 -30 -5 0 56
26 136 58 l145 57 51 194 c40 152 61 211 93 267 47 83 50 95 19 88 -41 -8
-181 -25 -185 -22 -2 2 25 12 59 22 264 77 536 217 705 363 73 63 150 149 141
158 -4 4 -137 -20 -298 -52 -14 -3 17 17 67 44 107 58 134 76 224 148 61 50
156 151 148 159 -2 2 -111 -18 -241 -44 -131 -27 -235 -44 -232 -39 3 4 10 8
15 8 26 0 265 125 362 189 120 79 267 215 332 306 49 69 102 172 93 181 -4 3
-335 -131 -736 -299 -402 -167 -728 -299 -726 -293 7 15 157 141 439 367 409
328 644 589 901 999 87 140 226 401 203 384 -8 -6 -178 -132 -379 -281 -748
-552 -1295 -957 -1309 -967 -12 -9 -13 -8 -6 4 17 30 595 798 674 895 93 115
137 194 216 390 63 155 220 614 213 621 -3 2 -322 -350 -709 -783 -854 -956
-784 -880 -713 -768 95 149 215 351 304 510 46 83 113 197 148 255 84 135 202
380 241 496 16 50 37 128 45 174 17 89 21 226 7 234 -4 3 -293 -350 -641 -784z
m-3464 -6078 c23 -18 59 -71 53 -75 -2 -2 -39 -20 -81 -40 -42 -21 -102 -60
-132 -88 -53 -48 -76 -55 -76 -23 0 16 31 81 87 182 l35 62 46 0 c29 0 55 -7
68 -18z"/>
</g>
</svg>
